# xmcd
#
# Track frame offsets:
#   150
#   13791
#   26874
#   40197
#   58665
#   70859
#   83329
#   95350
#   111443
#   126022
#   137066
#   150497
#   156507
#   168736
#   179445
#   193731
#   207266
#   220682
#   231288
#
# Disc length: 3288 seconds
#
# Revision: 0
# Processed by: cddbd v1.4PL0 Copyright (c) Steve Scherf et al.
# Submitted via: uFREEDB 1.6.0
#
DISCID=0c0cd613
DTITLE=Varios Artistas - Canciones Viejisimas
DYEAR=1998
DGENRE=Blues
TTITLE0=Amor perdido
TTITLE1=Angustia
TTITLE2=Prisionero del mar
TTITLE3=Alma mia
TTITLE4=El juego de la vida
TTITLE5=Escribeme
TTITLE6=Prisionero
TTITLE7=Sabras que te quiero
TTITLE8=La Barca
TTITLE9=El mar y el cielo
TTITLE10=Mienteme
TTITLE11=Obsesion
TTITLE12=Como una sombra
TTITLE13=Recordar es vivir
TTITLE14=Si me comprendieras
TTITLE15=Donde quiera que tu vallas
TTITLE16=Arrepentida
TTITLE17=Verdad amarga
TTITLE18=Volveras
EXTD=
EXTT0=
EXTT1=
EXTT2=
EXTT3=
EXTT4=
EXTT5=
EXTT6=
EXTT7=
EXTT8=
EXTT9=
EXTT10=
EXTT11=
EXTT12=
EXTT13=
EXTT14=
EXTT15=
EXTT16=
EXTT17=
EXTT18=
PLAYORDER=
